<svg xmlns="http://www.w3.org/2000/svg" viewBox="0 0 99.38 97.72"><defs><style>.cls-1,.cls-15,.cls-2{fill:#fff;}.cls-1{opacity:0.5;}.cls-2{font-size:8.96px;font-family:Roboto-LightItalic, Roboto LightItalic;font-weight:300;font-style:italic;letter-spacing:-0.07em;}.cls-3{letter-spacing:0.02em;}.cls-4{letter-spacing:0.02em;}.cls-5{letter-spacing:0em;}.cls-6{letter-spacing:-0.01em;}.cls-7{letter-spacing:-0.01em;}.cls-8{letter-spacing:0.03em;}.cls-9{letter-spacing:0em;}.cls-10{letter-spacing:0.02em;}.cls-11{letter-spacing:0em;}.cls-12{letter-spacing:-0.01em;}.cls-13{letter-spacing:0.01em;}.cls-14{fill:none;stroke:#fff;stroke-miterlimit:10;stroke-width:0.75px;}</style></defs><title>资源 4</title><g id="图层_2" data-name="图层 2"><g id="图层_2-2" data-name="图层 2"><circle class="cls-1" cx="13.43" cy="24" r="13.43"/><circle class="cls-1" cx="13.43" cy="24" r="4.92"/><circle class="cls-1" cx="13.43" cy="24" r="8.94"/><text class="cls-2" transform="translate(45.94 93.69) scale(0.98 1)">T<tspan class="cls-3" x="3.83" y="0">o</tspan><tspan class="cls-4" x="8.89" y="0">-</tspan><tspan class="cls-5" x="11.81" y="0">empl</tspan><tspan class="cls-6" x="31.03" y="0">o</tspan><tspan class="cls-7" x="35.9" y="0">y</tspan><tspan class="cls-5" x="40.04" y="0">ers</tspan></text><text class="cls-2" transform="translate(45.94 64.32) scale(0.98 1)">T<tspan class="cls-3" x="3.83" y="0">o</tspan><tspan class="cls-5" x="8.89" y="0">-supe</tspan><tspan class="cls-8" x="29.77" y="0">r</tspan><tspan class="cls-5" x="32.93" y="0">visors</tspan></text><text class="cls-2" transform="translate(45.94 11.15) scale(0.98 1)">T<tspan class="cls-3" x="3.83" y="0">o</tspan><tspan class="cls-4" x="8.89" y="0">-</tspan><tspan class="cls-9" x="11.81" y="0">c</tspan><tspan class="cls-10" x="15.78" y="0">o</tspan><tspan class="cls-11" x="20.85" y="0">-</tspan><tspan class="cls-12" x="23.57" y="0">w</tspan><tspan class="cls-5" x="30.08" y="0">o</tspan><tspan class="cls-13" x="35.01" y="0">r</tspan><tspan class="cls-5" x="37.99" y="0">kers</tspan></text><polyline class="cls-14" points="72.72 97.35 25.47 97.35 13.49 36.82"/><circle class="cls-15" cx="13.43" cy="36.89" r="1.2"/><polyline class="cls-14" points="70.72 68.8 29.49 68.8 21.33 28.11"/><circle class="cls-15" cx="21.27" cy="28.17" r="1.2"/><polyline class="cls-14" points="72.72 0.38 30.67 0.38 13.49 23.92"/><circle class="cls-15" cx="13.43" cy="23.99" r="1.2"/></g></g></svg>