<svg xmlns="http://www.w3.org/2000/svg" viewBox="0 0 212.41 114.2"><defs><style>.cls-1,.cls-3,.cls-4,.cls-5{font-size:9px;font-family:Roboto-LightItalic, Roboto LightItalic;font-weight:300;font-style:italic;}.cls-1,.cls-3,.cls-4,.cls-5,.cls-8{fill:#fff;}.cls-1{letter-spacing:0.01em;}.cls-2,.cls-5{letter-spacing:0em;}.cls-3{letter-spacing:-0.03em;}.cls-4{letter-spacing:0.02em;}.cls-6{letter-spacing:-0.04em;}.cls-7{letter-spacing:-0.07em;}</style></defs><title>资源 1</title><g id="图层_2" data-name="图层 2"><g id="图层_2-2" data-name="图层 2"><text class="cls-1" transform="translate(52.61 59.38) scale(0.98 1)">M<tspan class="cls-2" x="7.3" y="0">ale</tspan></text><text class="cls-3" transform="translate(52.61 12.16) scale(0.98 1)">F<tspan class="cls-2" x="4.11" y="0">emale</tspan></text><text class="cls-4" transform="translate(52.61 109.88) scale(0.98 1)">O<tspan class="cls-2" x="6.36" y="0">thers</tspan></text><text class="cls-5" transform="translate(168.73 59.38) scale(0.98 1)">30<tspan class="cls-6" x="9.25" y="0"> </tspan><tspan class="cls-7" x="10.75" y="0">Y</tspan><tspan x="14.95" y="0">ears old</tspan></text><text class="cls-5" transform="translate(168.73 12.16) scale(0.98 1)">20<tspan class="cls-6" x="9.25" y="0"> </tspan><tspan class="cls-7" x="10.75" y="0">Y</tspan><tspan x="14.95" y="0">ears old</tspan></text><text class="cls-5" transform="translate(168.73 109.88) scale(0.98 1)">40<tspan class="cls-6" x="9.25" y="0"> </tspan><tspan class="cls-7" x="10.75" y="0">Y</tspan><tspan x="14.95" y="0">ears old</tspan></text><circle class="cls-8" cx="10.81" cy="9.03" r="9.03"/><circle class="cls-8" cx="134.02" cy="9.03" r="3.89"/><circle class="cls-8" cx="134.02" cy="56.21" r="6.36"/><circle class="cls-8" cx="134.02" cy="105.88" r="8.06"/><rect class="cls-8" x="3.17" y="48.56" width="15.29" height="15.29" transform="translate(42.91 8.82) rotate(45)"/><polygon class="cls-8" points="10.81 97.56 15.62 105.88 20.42 114.2 10.81 114.2 1.21 114.2 6.01 105.88 10.81 97.56"/></g></g></svg>