<svg xmlns="http://www.w3.org/2000/svg" viewBox="0 0 253.81 91.06"><defs><style>.cls-1,.cls-3,.cls-7,.cls-8{font-size:9px;font-family:Roboto-LightItalic, Roboto LightItalic;font-weight:300;font-style:italic;}.cls-1,.cls-12,.cls-3,.cls-7,.cls-8{fill:#fff;}.cls-1{letter-spacing:0em;}.cls-2,.cls-7{letter-spacing:0em;}.cls-3{letter-spacing:-0.01em;}.cls-4{letter-spacing:-0.01em;}.cls-5{letter-spacing:0.03em;}.cls-6{letter-spacing:0.02em;}.cls-8{letter-spacing:0.01em;}.cls-9{letter-spacing:0em;}.cls-10{letter-spacing:0em;}.cls-11{letter-spacing:-0.01em;}.cls-13{fill:none;stroke:#fff;stroke-miterlimit:10;stroke-width:0.5px;}</style></defs><title>资源 2</title><g id="图层_2" data-name="图层 2"><g id="图层_2-2" data-name="图层 2"><text class="cls-1" transform="translate(0 88.81) scale(0.98 1)">B<tspan class="cls-2" x="4.92" y="0">enefits</tspan></text><text class="cls-3" transform="translate(60.31 88.81) scale(0.98 1)">C<tspan class="cls-2" x="5.17" y="0">a</tspan><tspan class="cls-4" x="9.51" y="0">r</tspan><tspan class="cls-5" x="12.37" y="0">e</tspan><tspan class="cls-6" x="17.14" y="0">-</tspan><tspan class="cls-2" x="20.08" y="0">options</tspan></text><text class="cls-7" transform="translate(138.78 88.81) scale(0.98 1)">Discussion</text><text class="cls-8" transform="translate(207.81 88.81) scale(0.98 1)">R<tspan class="cls-9" x="4.89" y="0">es</tspan><tspan class="cls-10" x="12.98" y="0">c</tspan><tspan class="cls-2" x="16.96" y="0">ou</tspan><tspan class="cls-4" x="26.88" y="0">r</tspan><tspan class="cls-11" x="29.74" y="0">c</tspan><tspan class="cls-2" x="33.73" y="0">es</tspan></text><circle class="cls-12" cx="228.75" cy="34.15" r="3.42"/><ellipse class="cls-13" cx="228.75" cy="34.15" rx="8.99" ry="33.9" transform="translate(42.85 171.75) rotate(-45)"/><circle class="cls-12" cx="87.72" cy="34.15" r="3.42"/><ellipse class="cls-13" cx="87.72" cy="34.15" rx="33.9" ry="8.99" transform="translate(1.55 72.03) rotate(-45)"/><circle class="cls-12" cx="17.2" cy="34.15" r="3.42"/><ellipse class="cls-13" cx="17.2" cy="34.15" rx="8.99" ry="33.9"/><circle class="cls-12" cx="158.24" cy="34.15" r="3.42"/><ellipse class="cls-13" cx="158.24" cy="34.15" rx="33.9" ry="8.99"/></g></g></svg>